<svg version="1.1" id="Layer_1" xmlns="http://www.w3.org/2000/svg" xmlns:xlink="http://www.w3.org/1999/xlink" x="0px" y="0px"
	 width="100%" viewBox="0 0 1000 1000" enable-background="new 0 0 1000 1000" xml:space="preserve">
<path fill="#FFD2B2" opacity="1.000000" stroke="none" 
	d="
M662.000000,1001.000000 
	C441.333344,1001.000000 221.166672,1001.000000 1.000000,1001.000000 
	C1.000000,667.666687 1.000000,334.333344 1.000000,1.000000 
	C334.333344,1.000000 667.666687,1.000000 1001.000000,1.000000 
	C1001.000000,334.333344 1001.000000,667.666687 1001.000000,1001.000000 
	C888.166687,1001.000000 775.333313,1001.000000 662.000000,1001.000000 
M420.783752,186.218735 
	C417.730804,187.040192 414.644928,187.756348 411.629639,188.698334 
	C302.234100,222.873352 228.421570,293.922913 191.167282,402.381073 
	C178.862869,438.202820 174.312668,475.338684 176.938934,513.146484 
	C178.159119,530.712463 179.463791,548.418518 182.784195,565.665649 
	C193.225845,619.902222 216.881348,668.087341 252.376556,710.362671 
	C281.359253,744.881470 316.040527,772.369141 356.493347,792.287048 
	C396.847076,812.156128 439.343903,824.073364 484.568909,825.366028 
	C511.599060,826.138672 538.497437,825.603394 565.111084,820.009766 
	C641.840149,803.883057 705.526062,765.910583 754.390869,704.627319 
	C815.951294,627.421997 837.524109,539.198914 820.450500,442.323151 
	C807.011902,366.071991 769.839661,302.284943 710.172668,252.858337 
	C625.409973,182.643097 528.500183,162.037720 420.783752,186.218735 
z"/>
<path fill="#FF6900" opacity="1.000000" stroke="none" 
	d="
M421.186951,186.132172 
	C528.500183,162.037720 625.409973,182.643097 710.172668,252.858337 
	C769.839661,302.284943 807.011902,366.071991 820.450500,442.323151 
	C837.524109,539.198914 815.951294,627.421997 754.390869,704.627319 
	C705.526062,765.910583 641.840149,803.883057 565.111084,820.009766 
	C538.497437,825.603394 511.599060,826.138672 484.568909,825.366028 
	C439.343903,824.073364 396.847076,812.156128 356.493347,792.287048 
	C316.040527,772.369141 281.359253,744.881470 252.376556,710.362671 
	C216.881348,668.087341 193.225845,619.902222 182.784195,565.665649 
	C179.463791,548.418518 178.159119,530.712463 176.938934,513.146484 
	C174.312668,475.338684 178.862869,438.202820 191.167282,402.381073 
	C228.421570,293.922913 302.234100,222.873352 411.629639,188.698334 
	C414.644928,187.756348 417.730804,187.040192 421.186951,186.132172 
M488.958282,501.453339 
	C472.439240,519.439270 455.920166,537.425232 438.465210,556.430237 
	C436.830139,554.212646 435.820587,552.430725 434.432617,551.021729 
	C405.894745,522.051758 377.341187,493.097015 348.724243,464.205170 
	C340.369995,455.770660 330.832184,455.805969 322.364563,464.106659 
	C308.202209,477.989899 294.045013,491.878662 279.947845,505.828003 
	C271.773132,513.916992 271.756622,522.007996 279.802826,530.180054 
	C291.028137,541.580933 302.310089,552.926147 313.543427,564.319214 
	C351.338074,602.651367 389.136841,640.979675 426.887451,679.355164 
	C430.760315,683.292114 434.912903,686.162720 440.715179,686.377014 
	C447.416473,686.624634 451.920349,683.172424 456.135590,678.562378 
	C492.791901,638.472656 529.505676,598.435425 566.216064,558.395142 
	C618.579773,501.281616 670.963440,444.186371 723.316223,387.062836 
	C730.797180,378.900177 730.272034,370.675995 722.030273,363.137238 
	C708.135742,350.427795 694.024536,337.941284 680.472595,324.875519 
	C669.297607,314.101379 662.081299,312.239136 649.440186,326.158447 
	C596.339722,384.628113 542.817261,442.714478 488.958282,501.453339 
z"/>
<path fill="#FFD2B2" opacity="1.000000" stroke="none" 
	d="
M489.203766,501.197266 
	C542.817261,442.714478 596.339722,384.628113 649.440186,326.158447 
	C662.081299,312.239136 669.297607,314.101379 680.472595,324.875519 
	C694.024536,337.941284 708.135742,350.427795 722.030273,363.137238 
	C730.272034,370.675995 730.797180,378.900177 723.316223,387.062836 
	C670.963440,444.186371 618.579773,501.281616 566.216064,558.395142 
	C529.505676,598.435425 492.791901,638.472656 456.135590,678.562378 
	C451.920349,683.172424 447.416473,686.624634 440.715179,686.377014 
	C434.912903,686.162720 430.760315,683.292114 426.887451,679.355164 
	C389.136841,640.979675 351.338074,602.651367 313.543427,564.319214 
	C302.310089,552.926147 291.028137,541.580933 279.802826,530.180054 
	C271.756622,522.007996 271.773132,513.916992 279.947845,505.828003 
	C294.045013,491.878662 308.202209,477.989899 322.364563,464.106659 
	C330.832184,455.805969 340.369995,455.770660 348.724243,464.205170 
	C377.341187,493.097015 405.894745,522.051758 434.432617,551.021729 
	C435.820587,552.430725 436.830139,554.212646 438.465210,556.430237 
	C455.920166,537.425232 472.439240,519.439270 489.203766,501.197266 
z"/>
</svg>